<?xml version="1.0" standalone="no"?>
<!DOCTYPE svg PUBLIC "-//W3C//DTD SVG 20010904//EN"
 "http://www.w3.org/TR/2001/REC-SVG-20010904/DTD/svg10.dtd">
<svg version="1.0" xmlns="http://www.w3.org/2000/svg"
 width="1332.000000pt" height="1332.000000pt" viewBox="0 0 1332.000000 1332.000000"
 preserveAspectRatio="xMidYMid meet">
<metadata>
Created by potrace 1.14, written by Peter Selinger 2001-2017
</metadata>
<g transform="translate(0.000000,1332.000000) scale(0.100000,-0.100000)"
fill="#000000" stroke="none">
<path d="M12424 8633 c-20 -20 -8 -30 42 -35 40 -3 41 -3 27 18 -18 29 -49 36
-69 17z"/>
<path d="M12162 8572 c-7 -2 -33 -36 -59 -75 -202 -312 -492 -740 -505 -745
-4 -2 -8 -7 -8 -12 0 -5 -83 -125 -184 -267 -387 -543 -357 -508 -456 -507
-67 1 -322 10 -510 19 -58 3 -170 7 -250 10 -80 3 -185 7 -235 9 -49 3 -162 7
-250 11 -88 3 -198 8 -245 10 -47 2 -159 7 -250 10 -91 3 -203 8 -250 10 -47
3 -152 7 -235 10 -82 3 -197 8 -255 10 -58 3 -170 7 -250 11 -241 9 -254 10
-275 21 -11 6 -49 20 -85 33 -358 123 -353 121 -404 166 -78 68 -207 108 -280
87 -22 -7 -52 -1 -125 24 -92 31 -317 97 -364 108 -12 2 -53 11 -92 19 -87 19
-115 24 -138 25 -10 1 -16 5 -13 9 12 19 -35 52 -74 53 -93 3 -98 2 -105 -21
-4 -11 -11 -18 -16 -14 -5 3 -7 14 -4 25 7 20 5 21 -60 21 -66 0 -74 -2 -92
-21 -19 -20 -22 -20 -278 -6 -66 4 -162 7 -212 8 -85 2 -93 4 -94 22 -1 17 -2
17 -6 3 -7 -29 -23 -20 -23 12 0 17 -4 30 -10 30 -5 0 -7 6 -4 14 4 9 -2 16
-17 18 -17 2 -23 10 -24 30 -1 15 2 25 7 22 27 -17 55 -13 68 10 7 13 9 29 6
35 -5 7 9 11 41 12 26 1 55 3 63 4 8 1 22 3 30 4 13 1 13 3 0 12 -12 9 -12 10
3 5 10 -3 21 -6 23 -6 2 0 4 -7 4 -15 0 -11 12 -15 51 -15 41 0 50 3 45 15 -3
9 0 15 9 15 8 0 15 3 15 8 0 4 63 8 140 10 l140 2 6 -27 c9 -39 23 -53 50 -53
26 0 47 30 38 54 -10 25 26 34 156 36 284 5 404 8 575 14 99 3 270 8 380 11
110 3 277 7 370 10 94 3 251 8 350 10 99 2 261 6 360 10 99 3 272 7 385 10
113 3 261 7 330 10 69 3 235 7 370 10 135 3 292 7 350 10 58 2 231 7 385 11
154 3 305 8 335 9 30 2 84 3 120 4 63 1 66 2 68 26 l2 25 -333 -5 c-182 -3
-406 -7 -497 -10 -91 -2 -316 -7 -500 -10 -184 -3 -420 -7 -525 -10 -104 -3
-320 -7 -480 -10 -159 -2 -378 -7 -485 -10 -107 -3 -332 -7 -500 -10 -168 -2
-406 -7 -530 -11 -124 -3 -326 -7 -450 -9 -212 -3 -225 -2 -241 16 -26 30 -54
31 -78 3 -16 -18 -31 -24 -63 -24 -24 -1 -85 -2 -136 -4 -51 -1 -95 1 -98 6
-3 5 -10 6 -15 3 -5 -4 -9 3 -9 14 0 18 -5 20 -42 17 -23 -3 -45 -11 -50 -19
-6 -12 -13 -13 -33 -4 -14 7 -25 16 -25 20 0 15 -24 33 -70 51 -52 21 -231 29
-290 14 -77 -21 -130 -50 -136 -74 -3 -13 -10 -22 -14 -19 -5 3 -14 -3 -19
-12 -10 -17 -12 -17 -24 -1 -18 22 -116 30 -102 9 12 -21 -41 -32 -165 -35
-110 -3 -131 -1 -147 13 -33 31 -53 33 -76 7 -26 -28 -69 -32 -457 -41 -118
-3 -255 -8 -305 -10 -49 -3 -195 -7 -323 -10 -128 -3 -262 -7 -299 -10 -36 -2
-176 -7 -312 -10 -135 -4 -275 -8 -311 -10 -36 -2 -166 -6 -290 -10 -124 -3
-268 -8 -320 -10 -52 -3 -192 -7 -310 -10 -118 -3 -262 -8 -320 -10 -58 -2
-202 -7 -320 -10 -118 -3 -251 -8 -295 -10 -44 -3 -188 -8 -320 -11 -132 -3
-260 -7 -285 -9 -25 -1 -53 -3 -62 -4 -12 -1 -18 -9 -18 -26 l0 -24 198 4
c108 2 271 7 362 10 91 3 280 7 420 10 140 3 327 7 415 10 88 3 279 8 425 10
146 2 319 7 385 10 66 3 253 7 415 10 162 3 347 7 410 10 63 2 246 7 405 10
160 3 349 7 420 10 300 11 675 15 676 8 1 -5 3 -19 4 -32 3 -27 20 -41 52 -41
28 0 45 29 32 53 -8 13 -6 17 6 17 8 0 15 3 15 8 0 4 57 8 127 10 84 2 130 7
135 15 6 9 8 9 8 -1 0 -27 37 -50 79 -48 23 0 41 6 41 12 0 7 7 14 15 18 8 3
15 1 15 -5 0 -6 26 -9 66 -8 63 2 67 1 81 -24 7 -15 19 -28 26 -28 23 -2 42 3
49 14 4 7 8 -5 8 -25 0 -28 -5 -38 -21 -43 -12 -4 -18 -12 -15 -21 3 -8 -1
-14 -9 -14 -8 0 -15 -9 -15 -20 0 -17 -7 -20 -52 -21 -91 -1 -158 -8 -300 -33
-34 -6 -224 -69 -235 -78 -7 -6 -13 -7 -13 -3 0 4 -6 3 -13 -3 -7 -6 -30 -13
-52 -16 -22 -2 -47 -7 -55 -10 -8 -3 -32 -7 -52 -10 -129 -19 -545 -128 -688
-180 -25 -10 -49 -18 -55 -20 -11 -3 -27 -9 -110 -44 -74 -30 -233 -111 -343
-174 -46 -26 -96 -51 -110 -54 -46 -11 -185 -56 -222 -71 -117 -51 -417 -205
-545 -280 -202 -119 -274 -172 -376 -274 -132 -132 -168 -225 -130 -337 35
-102 142 -219 268 -293 160 -94 385 -212 448 -235 28 -9 51 -18 52 -19 1 0 13
-45 27 -99 14 -54 31 -107 38 -118 14 -20 176 -98 216 -103 44 -6 22 25 -58
81 l-80 56 0 69 c0 39 3 68 8 66 27 -18 354 -92 452 -103 30 -3 58 -8 61 -10
4 -2 38 -6 75 -9 38 -3 76 -8 84 -10 12 -3 232 -17 297 -18 7 0 10 -3 7 -6 -4
-5 -370 -3 -692 3 -52 1 -95 -1 -98 -5 -8 -13 18 -56 40 -68 19 -10 141 -14
715 -20 l64 -1 -7 -117 c-3 -65 -6 -132 -6 -149 0 -23 -8 -37 -30 -54 -26 -20
-44 -24 -115 -25 -152 -3 -224 18 -282 85 -28 31 -41 32 -70 6 -30 -26 -29
-35 8 -74 56 -60 116 -89 260 -127 48 -12 241 -14 1273 -16 669 -1 1218 0
1219 2 1 2 11 18 22 34 44 64 15 80 -149 84 -140 2 -148 8 -152 101 -2 30 -4
66 -5 80 -1 14 -1 51 0 83 l1 58 183 -4 c160 -4 196 -2 294 18 201 41 367 100
611 217 117 57 277 178 452 344 30 29 66 63 80 76 74 68 282 331 364 460 20
31 53 90 75 130 21 40 48 90 60 111 11 21 21 44 21 52 0 15 6 17 50 17 30 0
338 -11 500 -17 156 -6 375 -14 550 -20 80 -3 197 -7 260 -10 106 -4 293 -11
565 -20 61 -2 184 -6 275 -10 91 -3 217 -8 280 -10 346 -11 506 -18 520 -20 8
-2 18 -4 22 -4 4 -1 13 -7 20 -14 13 -14 97 -74 158 -114 19 -12 40 -26 45
-31 25 -20 212 -126 304 -172 83 -42 104 -57 121 -88 30 -55 143 -227 165
-252 35 -39 65 -49 120 -40 28 4 75 11 105 14 30 4 72 9 93 11 20 3 56 7 80
10 23 3 60 10 82 15 22 5 76 17 120 26 97 21 83 19 125 27 174 35 213 48 237
75 32 37 59 111 83 227 11 55 25 102 30 103 6 2 16 9 23 15 6 7 39 32 72 56
33 25 74 56 91 70 16 14 52 44 78 66 90 75 126 114 126 136 0 12 8 23 20 26
11 3 20 12 20 19 0 8 4 14 10 14 5 0 14 10 21 22 10 18 7 25 -23 52 -23 20
-36 41 -36 59 -1 15 -10 40 -21 55 -41 59 -111 173 -111 181 0 5 -3 11 -7 13
-5 2 -62 89 -127 193 l-119 190 1 81 c1 65 7 97 30 155 17 41 70 182 120 314
50 132 113 300 141 374 28 74 51 137 51 141 0 3 -10 6 -22 7 -13 0 -57 4 -98
7 -135 11 -295 24 -410 31 -41 3 -109 8 -150 10 -107 8 -343 13 -358 7z
m-6517 -681 c3 -5 2 -12 -3 -15 -5 -3 -9 1 -9 9 0 17 3 19 12 6z m-755 -2706
c494 -6 763 -11 781 -14 6 -1 5 -61 -4 -219 -2 -41 -9 -58 -29 -78 l-25 -26
-759 2 c-954 3 -869 1 -894 25 -18 19 -21 36 -24 160 -2 77 -1 145 1 151 3 9
60 11 201 9 108 -2 447 -7 752 -10z"/>
<path d="M5201 7734 c0 -11 3 -14 6 -6 3 7 2 16 -1 19 -3 4 -6 -2 -5 -13z"/>
</g>
</svg>
